HIERARCHY
ROOT Root
{
	OFFSET 0.000000 0.000000 0.000000
	CHANNELS 6 Xposition Yposition Zposition Xrotation Yrotation Zrotation
	End Site
	{
		OFFSET 0.000000 0.000000 0.000000
	}
}
MOTION
Frames: 102
Frame Time: 0.033333
0.293832 -2.174202 0.874677 -8.202200 -1.600100 14.022000 
0.288968 -2.194260 0.875129 -8.251800 -1.826600 14.106200 
0.284747 -2.213948 0.875756 -8.273900 -2.013900 14.209400 
0.281122 -2.233417 0.876391 -8.240000 -2.148900 14.319500 
0.277912 -2.252825 0.876912 -8.151900 -2.243900 14.444000 
0.274831 -2.272175 0.877278 -8.054800 -2.329200 14.591900 
0.271534 -2.291403 0.877433 -7.985900 -2.424000 14.739900 
0.267757 -2.310432 0.877138 -7.922200 -2.519500 14.846700 
0.263505 -2.329150 0.876056 -7.809000 -2.588100 14.899900 
0.258940 -2.347539 0.874116 -7.640400 -2.602200 14.917600 
0.254157 -2.365863 0.871695 -7.483200 -2.548500 14.905500 
0.249077 -2.384473 0.869282 -7.414300 -2.428800 14.847000 
0.243522 -2.403457 0.866986 -7.453400 -2.246600 14.732000 
0.237348 -2.422652 0.864608 -7.562100 -2.004200 14.564000 
0.230538 -2.441999 0.862122 -7.688900 -1.720200 14.336800 
0.223205 -2.461628 0.859777 -7.808100 -1.425300 14.037300 
0.215455 -2.481570 0.857697 -7.926800 -1.123400 13.672800 
0.207333 -2.501532 0.855744 -8.056600 -0.782100 13.271200 
0.198971 -2.521072 0.853864 -8.172200 -0.390800 12.859500 
0.190721 -2.539855 0.852244 -8.214400 -0.002800 12.461400 
0.182847 -2.557823 0.851052 -8.156600 0.311600 12.100500 
0.175181 -2.575202 0.850237 -8.058100 0.542000 11.778400 
0.167234 -2.592283 0.849660 -8.020600 0.734500 11.462900 
0.158707 -2.609078 0.849183 -8.079800 0.920400 11.122800 
0.149746 -2.625225 0.848528 -8.157400 1.077200 10.763400 
0.140693 -2.640340 0.847362 -8.137700 1.160300 10.412800 
0.131742 -2.654445 0.845663 -7.988700 1.156400 10.090000 
0.122832 -2.667940 0.843857 -7.796900 1.096700 9.799500 
0.113845 -2.681234 0.842437 -7.682500 1.023700 9.539600 
0.104783 -2.694429 0.841548 -7.693800 0.949000 9.307800 
0.095753 -2.707307 0.840999 -7.786700 0.846400 9.103800 
0.086754 -2.719596 0.840588 -7.883500 0.686200 8.924900 
0.077607 -2.731254 0.840260 -7.925000 0.476200 8.748900 
0.068151 -2.742507 0.839922 -7.877700 0.263500 8.536600 
0.058402 -2.753622 0.839231 -7.732000 0.094200 8.269800 
0.048438 -2.764711 0.837659 -7.507200 -0.015400 7.971900 
0.038283 -2.775684 0.834814 -7.238700 -0.065600 7.671800 
0.028014 -2.786329 0.830588 -6.942000 -0.053300 7.363900 
0.017859 -2.796436 0.825045 -6.599500 0.014900 7.028900 
0.008031 -2.805963 0.818347 -6.191700 0.109700 6.676500 
-0.001450 -2.815125 0.810839 -5.736500 0.209100 6.337100 
-0.010676 -2.824155 0.803016 -5.283400 0.337500 6.016500 
-0.019609 -2.833080 0.795213 -4.871500 0.546500 5.692000 
-0.028110 -2.841826 0.787390 -4.502500 0.856000 5.346500 
-0.036134 -2.850444 0.779358 -4.154000 1.232500 4.979500 
-0.043749 -2.859034 0.771174 -3.811700 1.617000 4.587700 
-0.050884 -2.867518 0.763166 -3.490800 1.948700 4.174400 
-0.057269 -2.875727 0.755645 -3.233600 2.178700 3.782100 
-0.062738 -2.883581 0.748637 -3.070700 2.302800 3.473000 
-0.067445 -2.891020 0.741825 -2.976400 2.373300 3.265900 
-0.071521 -2.897863 0.734731 -2.886600 2.439600 3.128600 
-0.074793 -2.904038 0.727098 -2.778700 2.492100 3.039500 
-0.077178 -2.909755 0.719117 -2.698100 2.514300 3.003400 
-0.079162 -2.915285 0.711159 -2.690300 2.548100 2.999400 
-0.081298 -2.920736 0.703298 -2.749800 2.619200 2.981400 
-0.083469 -2.926126 0.695231 -2.853200 2.648800 2.947600 
-0.085400 -2.931358 0.686501 -2.977600 2.565800 2.935700 
-0.087539 -2.936095 0.676562 -3.070600 2.459800 2.935500 
-0.090493 -2.940116 0.664807 -3.085100 2.449500 2.898100 
-0.093774 -2.943868 0.650933 -3.079700 2.419200 2.851200 
-0.096347 -2.948140 0.635013 -3.181700 2.101300 2.901000 
-0.098237 -2.953080 0.617017 -3.415800 1.433800 3.080300 
-0.100421 -2.958069 0.596473 -3.654200 0.643000 3.295300 
-0.103124 -2.962671 0.573077 -3.788100 -0.068600 3.463600 
-0.105550 -2.967076 0.547451 -3.848100 -0.725300 3.604000 
-0.107300 -2.971528 0.520647 -3.914900 -1.401900 3.763400 
-0.108979 -2.975884 0.493222 -4.001500 -2.033100 3.934300 
-0.111209 -2.979964 0.465285 -4.078800 -2.506000 4.083700 
-0.113911 -2.983903 0.437106 -4.150200 -2.826400 4.201000 
-0.116858 -2.987942 0.409105 -4.235500 -3.073000 4.282800 
-0.120254 -2.992057 0.381417 -4.314900 -3.245300 4.305300 
-0.124468 -2.996027 0.354012 -4.346400 -3.264800 4.245800 
-0.129494 -2.999725 0.327149 -4.329800 -3.105700 4.113400 
-0.135194 -3.003194 0.301320 -4.299700 -2.808900 3.923900 
-0.141669 -3.006517 0.276794 -4.257500 -2.370400 3.662500 
-0.148946 -3.009753 0.253477 -4.171400 -1.751300 3.311300 
-0.156677 -3.012882 0.231168 -4.040200 -1.010300 2.896000 
-0.164810 -3.015574 0.209804 -3.874600 -0.277500 2.443900 
-0.173576 -3.017258 0.189545 -3.630000 0.384100 1.935800 
-0.181333 -3.018117 0.170622 -3.300500 0.882100 1.423000 
-0.183924 -3.019730 0.153012 -3.072100 0.927800 1.148600 
-0.178968 -3.023570 0.136677 -3.178600 0.293100 1.333400 
-0.170302 -3.028765 0.122138 -3.562900 -0.716100 1.823200 
-0.165209 -3.032862 0.109786 -3.888100 -1.337700 2.188000 
-0.166741 -3.034779 0.099276 -3.950700 -1.172100 2.212100 
-0.171625 -3.035569 0.089952 -3.862900 -0.612100 2.061200 
-0.175865 -3.036537 0.081130 -3.778100 -0.202200 1.949200 
-0.178732 -3.037807 0.072654 -3.686800 -0.036000 1.875400 
-0.180980 -3.038986 0.064841 -3.538800 0.069600 1.769900 
-0.182651 -3.040040 0.057625 -3.341500 0.201600 1.662500 
-0.183779 -3.041010 0.050350 -3.069700 0.346200 1.587600 
-0.184917 -3.041670 0.042642 -2.659600 0.504900 1.497300 
-0.186108 -3.041907 0.035004 -2.145200 0.651800 1.362200 
-0.186789 -3.041927 0.028252 -1.661500 0.717900 1.235400 
-0.186911 -3.041937 0.022631 -1.285100 0.689200 1.164800 
-0.186944 -3.041970 0.017678 -0.976400 0.620000 1.137300 
-0.186980 -3.042084 0.012761 -0.675600 0.542200 1.133200 
-0.186728 -3.042318 0.007635 -0.373800 0.446900 1.155200 
-0.186223 -3.042529 0.002703 -0.099100 0.343400 1.195500 
-0.185801 -3.042577 -0.001321 0.115500 0.266000 1.229500 
-0.185618 -3.042549 -0.004110 0.261300 0.230500 1.245300 
-0.185590 -3.042577 -0.006038 0.368300 0.221200 1.247600 
